<svg xmlns="http://www.w3.org/2000/svg" xmlns:xlink="http://www.w3.org/1999/xlink" width="2000" zoomAndPan="magnify" viewBox="0 0 1500 1499.999933" height="2000" preserveAspectRatio="xMidYMid meet" version="1.0"><defs><g/><clipPath id="dc0db0bf65"><path d="M 496 386.558594 L 1005 386.558594 L 1005 894 L 496 894 Z M 496 386.558594 " clip-rule="nonzero"/></clipPath><clipPath id="f4f83b375d"><path d="M 421.984375 862 L 1078.984375 862 L 1078.984375 947.558594 L 421.984375 947.558594 Z M 421.984375 862 " clip-rule="nonzero"/></clipPath><clipPath id="26cf088336"><rect x="0" width="322" y="0" height="79"/></clipPath></defs><rect x="-150" width="1800" fill="#ffffff" y="-149.999993" height="1799.99992" fill-opacity="1"/><rect x="-150" width="1800" fill="#ffffff" y="-149.999993" height="1799.99992" fill-opacity="1"/><g fill="#bc1823" fill-opacity="1"><g transform="translate(426.96305, 1090.62477)"><g><path d="M 28.015625 -83.359375 C 35.367188 -64.535156 40.929688 -50.09375 44.703125 -40.03125 C 48.921875 -30.40625 49.625 -22.976562 46.8125 -17.75 C 44.257812 -13.332031 39.578125 -9.363281 32.765625 -5.84375 C 26.734375 -3.007812 18.820312 -2.003906 9.03125 -2.828125 C 7.050781 -2.835938 5.3125 -3.429688 3.8125 -4.609375 C 3 -6.035156 2.351562 -7.492188 1.875 -8.984375 C 1.78125 -10.753906 2.347656 -12.234375 3.578125 -13.421875 C 4.773438 -14.710938 6.691406 -15.460938 9.328125 -15.671875 C 16.566406 -15.140625 22.519531 -15.816406 27.1875 -17.703125 C 30.269531 -19.148438 32.484375 -21.289062 33.828125 -24.125 C 35.265625 -26.90625 34.203125 -32.59375 30.640625 -41.1875 C 27.242188 -49.238281 22.289062 -61.617188 15.78125 -78.328125 C 13.21875 -77.117188 11.289062 -76.210938 10 -75.609375 C 8.332031 -74.828125 6.554688 -74.695312 4.671875 -75.21875 C 3.328125 -75.914062 2.117188 -77.070312 1.046875 -78.6875 C 0.265625 -80.351562 0.210938 -82.050781 0.890625 -83.78125 C 1.460938 -85.382812 2.796875 -86.640625 4.890625 -87.546875 C 6.742188 -88.421875 10.09375 -89.957031 14.9375 -92.15625 C 19.757812 -94.414062 24.132812 -96.113281 28.0625 -97.25 C 30.125 -98.207031 31.953125 -98.160156 33.546875 -97.109375 C 34.859375 -96.640625 35.941406 -95.347656 36.796875 -93.234375 C 37.492188 -91.753906 37.460938 -90.054688 36.703125 -88.140625 C 36.191406 -86.878906 34.769531 -85.734375 32.4375 -84.703125 C 31.25 -84.390625 29.773438 -83.941406 28.015625 -83.359375 Z M 40.609375 -43.75 C 40.253906 -44.519531 39.789062 -45.007812 39.21875 -45.21875 C 38.9375 -45.476562 38.453125 -45.328125 37.765625 -44.765625 C 37.515625 -44.648438 37.5 -43.9375 37.71875 -42.625 C 39.25 -38.71875 40.738281 -34.128906 42.1875 -28.859375 C 42.332031 -28.535156 42.769531 -28.1875 43.5 -27.8125 C 43.925781 -27.9375 44.390625 -28.117188 44.890625 -28.359375 C 45.191406 -28.734375 45.269531 -29.238281 45.125 -29.875 C 43.613281 -34.582031 42.109375 -39.207031 40.609375 -43.75 Z M 23.125 -93.046875 C 22.476562 -92.742188 21.988281 -92.28125 21.65625 -91.65625 C 21.65625 -91.488281 21.796875 -91.007812 22.078125 -90.21875 C 22.398438 -90.039062 23.125 -90.015625 24.25 -90.140625 C 25.976562 -90.960938 27.976562 -91.710938 30.25 -92.390625 C 30.820312 -92.660156 31.128906 -93.082031 31.171875 -93.65625 C 31.304688 -94.1875 31.128906 -94.648438 30.640625 -95.046875 C 30.398438 -95.566406 29.84375 -95.660156 28.96875 -95.328125 C 27.25 -94.671875 25.300781 -93.910156 23.125 -93.046875 Z M 17.59375 -4.84375 C 18.394531 -5.144531 18.957031 -5.445312 19.28125 -5.75 C 19.488281 -6.320312 19.40625 -6.835938 19.03125 -7.296875 C 18.789062 -7.804688 17.890625 -7.96875 16.328125 -7.78125 C 14.484375 -7.863281 12.140625 -8.019531 9.296875 -8.25 C 8.597656 -8.550781 7.898438 -8.457031 7.203125 -7.96875 C 7.066406 -7.90625 6.957031 -7.382812 6.875 -6.40625 C 7.019531 -6.082031 7.4375 -5.6875 8.125 -5.21875 C 11.164062 -5.082031 14.320312 -4.957031 17.59375 -4.84375 Z M 17.59375 -4.84375 "/></g></g></g><g fill="#bc1823" fill-opacity="1"><g transform="translate(493.9885, 1058.525149)"><g><path d="M 5.65625 -1.5625 C 5.457031 -27.0625 6.207031 -45.332031 7.90625 -56.375 C 9.539062 -67.394531 11.421875 -75.320312 13.546875 -80.15625 C 15.578125 -84.863281 18.75 -87.820312 23.0625 -89.03125 C 27.25 -90.59375 30.875 -90.609375 33.9375 -89.078125 C 36.800781 -87.867188 40.519531 -82.859375 45.09375 -74.046875 C 49.375 -65.898438 54.320312 -57.675781 59.9375 -49.375 C 65.414062 -41.71875 71.472656 -34.316406 78.109375 -27.171875 C 79.304688 -26.066406 79.925781 -24.554688 79.96875 -22.640625 C 80.019531 -21.378906 79.367188 -19.960938 78.015625 -18.390625 C 76.992188 -17.679688 75.46875 -16.988281 73.4375 -16.3125 C 71.78125 -16.125 70.1875 -16.75 68.65625 -18.1875 C 63.0625 -25.070312 57.507812 -32.421875 52 -40.234375 C 47.21875 -48.066406 42.570312 -55.941406 38.0625 -63.859375 C 34.175781 -71.921875 31.675781 -76.285156 30.5625 -76.953125 C 29.945312 -77.878906 28.734375 -78.039062 26.921875 -77.4375 C 25.367188 -76.914062 23.800781 -74.441406 22.21875 -70.015625 C 21.175781 -65.929688 20 -59.257812 18.6875 -50 C 18.300781 -45.976562 18.007812 -39.78125 17.8125 -31.40625 C 20.03125 -32.144531 23.445312 -32.875 28.0625 -33.59375 C 33.957031 -35.175781 39.3125 -36.066406 44.125 -36.265625 C 46.1875 -36.796875 47.9375 -36.363281 49.375 -34.96875 C 50.539062 -34.164062 51.328125 -32.710938 51.734375 -30.609375 C 52.179688 -29.023438 51.832031 -27.375 50.6875 -25.65625 C 50 -24.601562 48.375 -23.765625 45.8125 -23.140625 C 41.507812 -22.816406 36.210938 -21.984375 29.921875 -20.640625 C 24.296875 -19.585938 20.421875 -18.75 18.296875 -18.125 C 18.296875 -18.125 18.1875 -18.117188 17.96875 -18.109375 C 18.257812 -13.421875 18.460938 -7.992188 18.578125 -1.828125 C 18.867188 -0.492188 18.296875 1.046875 16.859375 2.796875 C 15.898438 3.703125 14.457031 4.410156 12.53125 4.921875 C 11.050781 4.960938 9.515625 4.382812 7.921875 3.1875 C 6.898438 1.957031 6.144531 0.375 5.65625 -1.5625 Z M 9.796875 -54.09375 C 9.835938 -53.507812 10.082031 -52.878906 10.53125 -52.203125 C 10.976562 -52.203125 11.460938 -52.21875 11.984375 -52.25 C 12.472656 -52.5625 12.785156 -53.414062 12.921875 -54.8125 C 13.742188 -61.738281 15.425781 -69.140625 17.96875 -77.015625 C 18.257812 -77.941406 18.25 -78.648438 17.9375 -79.140625 C 17.800781 -79.546875 17.332031 -79.722656 16.53125 -79.671875 C 16.113281 -79.773438 15.675781 -79.40625 15.21875 -78.5625 C 12.757812 -70.863281 10.953125 -62.707031 9.796875 -54.09375 Z M 74.453125 -23.703125 C 75.035156 -23.296875 75.65625 -23.128906 76.3125 -23.203125 C 76.914062 -23.398438 77.226562 -23.800781 77.25 -24.40625 C 77.28125 -25.007812 76.765625 -25.773438 75.703125 -26.703125 C 73.472656 -29.109375 70.992188 -31.941406 68.265625 -35.203125 C 67.992188 -36.015625 67.4375 -36.4375 66.59375 -36.46875 C 66.289062 -36.507812 65.828125 -36.238281 65.203125 -35.65625 C 65.109375 -35.46875 65.148438 -34.882812 65.328125 -33.90625 C 67.972656 -30.445312 71.015625 -27.046875 74.453125 -23.703125 Z M 59.78125 -40.46875 C 60.15625 -40 60.722656 -39.628906 61.484375 -39.359375 C 62.097656 -39.566406 62.484375 -39.878906 62.640625 -40.296875 C 62.835938 -40.804688 62.578125 -41.691406 61.859375 -42.953125 C 61.796875 -43.148438 61.601562 -43.390625 61.28125 -43.671875 C 60.96875 -44.617188 60.523438 -45.179688 59.953125 -45.359375 C 59.753906 -45.503906 59.234375 -45.363281 58.390625 -44.9375 C 58.128906 -44.851562 58.019531 -44.289062 58.0625 -43.25 C 58.445312 -42.5625 59.019531 -41.632812 59.78125 -40.46875 Z M 59.78125 -40.46875 "/></g></g></g><g fill="#bc1823" fill-opacity="1"><g transform="translate(573.812723, 1031.6905)"><g><path d="M -3.328125 -69.484375 C 7.203125 -75.023438 15.304688 -78.804688 20.984375 -80.828125 C 26.671875 -82.773438 32.296875 -84.316406 37.859375 -85.453125 C 46.617188 -87.222656 53.484375 -86.765625 58.453125 -84.078125 C 63.273438 -81.648438 66.398438 -77.101562 67.828125 -70.4375 C 68.867188 -65.289062 68.222656 -59.1875 65.890625 -52.125 C 63.785156 -45.757812 60.242188 -39.46875 55.265625 -33.25 C 50.828125 -27.644531 43.394531 -21.644531 32.96875 -15.25 C 30.8125 -14.457031 28.695312 -14.539062 26.625 -15.5 C 24.96875 -16.820312 24.109375 -18.742188 24.046875 -21.265625 C 24.296875 -23.929688 25.785156 -26.015625 28.515625 -27.515625 C 36.367188 -32.359375 41.816406 -36.75 44.859375 -40.6875 C 47.898438 -44.5625 50.570312 -49.410156 52.875 -55.234375 C 55.132812 -60.921875 55.890625 -65.601562 55.140625 -69.28125 C 54.710938 -71.363281 53.234375 -72.769531 50.703125 -73.5 C 48.441406 -74.269531 44.285156 -74.078125 38.234375 -72.921875 C 32.722656 -71.796875 27.390625 -70.238281 22.234375 -68.25 C 20.015625 -67.726562 17.441406 -66.628906 14.515625 -64.953125 C 17.960938 -46.171875 19.929688 -33.429688 20.421875 -26.734375 C 21.359375 -20.691406 21.925781 -12.910156 22.125 -3.390625 C 22.238281 -0.304688 21.117188 2.195312 18.765625 4.125 C 16.929688 5.4375 14.785156 5.582031 12.328125 4.5625 C 10.453125 3.195312 9.445312 1.265625 9.3125 -1.234375 C 9.125 -9.671875 8.546875 -18.242188 7.578125 -26.953125 C 6.660156 -34.296875 4.988281 -44.851562 2.5625 -58.625 C 1.175781 -58.34375 -0.445312 -58.335938 -2.3125 -58.609375 C -4.195312 -59.671875 -5.359375 -61.460938 -5.796875 -63.984375 C -5.890625 -66.585938 -5.066406 -68.421875 -3.328125 -69.484375 Z M 56.6875 -82.515625 C 56.21875 -83.078125 55.554688 -83.160156 54.703125 -82.765625 C 54.410156 -82.703125 54.175781 -82.222656 54 -81.328125 C 54.050781 -81.046875 54.695312 -80.378906 55.9375 -79.328125 C 56.144531 -79.367188 56.453125 -79.253906 56.859375 -78.984375 C 57.390625 -78.503906 58.003906 -78.148438 58.703125 -77.921875 C 59.117188 -78.015625 59.523438 -78.351562 59.921875 -78.9375 C 60.148438 -79.5625 60.03125 -80.15625 59.5625 -80.71875 C 58.894531 -81.457031 57.9375 -82.054688 56.6875 -82.515625 Z M 13.515625 -23.828125 C 13.347656 -24.648438 13.050781 -25.234375 12.625 -25.578125 C 12.414062 -25.898438 11.878906 -25.867188 11.015625 -25.484375 C 10.734375 -25.421875 10.550781 -24.726562 10.46875 -23.40625 C 11.09375 -16.726562 11.539062 -9.320312 11.8125 -1.1875 C 11.882812 -0.84375 12.226562 -0.410156 12.84375 0.109375 C 13.269531 0.0859375 13.769531 0.0546875 14.34375 0.015625 C 14.71875 -0.265625 14.941406 -0.78125 15.015625 -1.53125 C 14.503906 -9.03125 14.003906 -16.460938 13.515625 -23.828125 Z M 31.84375 -80.859375 C 31.144531 -80.710938 30.660156 -80.242188 30.390625 -79.453125 C 30.453125 -79.109375 30.644531 -78.644531 30.96875 -78.0625 C 31.425781 -78 32.351562 -78.082031 33.75 -78.3125 C 37.445312 -79.425781 41.632812 -80.238281 46.3125 -80.75 C 47.144531 -80.914062 47.769531 -81.1875 48.1875 -81.5625 C 48.46875 -81.976562 48.484375 -82.484375 48.234375 -83.078125 C 48.097656 -83.710938 47.5625 -84.003906 46.625 -83.953125 C 41.8125 -83.410156 36.882812 -82.378906 31.84375 -80.859375 Z M 31.84375 -80.859375 "/></g></g></g><g fill="#bc1823" fill-opacity="1"><g transform="translate(653.14983, 1015.197073)"><g><path d="M 5.875 -0.140625 C 11.832031 -24.941406 16.960938 -42.5 21.265625 -52.8125 C 25.523438 -63.101562 29.265625 -70.335938 32.484375 -74.515625 C 35.585938 -78.609375 39.375 -80.71875 43.84375 -80.84375 C 48.289062 -81.34375 51.8125 -80.484375 54.40625 -78.265625 C 56.90625 -76.390625 59.3125 -70.628906 61.625 -60.984375 C 63.820312 -52.046875 66.644531 -42.875 70.09375 -33.46875 C 73.550781 -24.695312 77.644531 -16.046875 82.375 -7.515625 C 83.257812 -6.160156 83.492188 -4.546875 83.078125 -2.671875 C 82.816406 -1.429688 81.835938 -0.210938 80.140625 0.984375 C 78.984375 1.421875 77.335938 1.722656 75.203125 1.890625 C 73.554688 1.671875 72.160156 0.679688 71.015625 -1.078125 C 67.253906 -9.109375 63.640625 -17.582031 60.171875 -26.5 C 57.410156 -35.25 54.800781 -44.007812 52.34375 -52.78125 C 50.519531 -61.539062 49.148438 -66.378906 48.234375 -67.296875 C 47.867188 -68.335938 46.726562 -68.785156 44.8125 -68.640625 C 43.1875 -68.515625 41.066406 -66.492188 38.453125 -62.578125 C 36.460938 -58.867188 33.707031 -52.679688 30.1875 -44.015625 C 28.84375 -40.203125 27.066406 -34.253906 24.859375 -26.171875 C 27.191406 -26.359375 30.6875 -26.242188 35.34375 -25.828125 C 41.457031 -25.953125 46.867188 -25.519531 51.578125 -24.53125 C 53.703125 -24.550781 55.296875 -23.71875 56.359375 -22.03125 C 57.296875 -20.96875 57.707031 -19.367188 57.59375 -17.234375 C 57.644531 -15.585938 56.910156 -14.0625 55.390625 -12.65625 C 54.453125 -11.800781 52.671875 -11.382812 50.046875 -11.40625 C 45.785156 -12.125 40.441406 -12.59375 34.015625 -12.8125 C 28.304688 -13.144531 24.34375 -13.257812 22.125 -13.15625 C 22.125 -13.15625 22.023438 -13.1875 21.828125 -13.25 C 20.972656 -8.625 19.851562 -3.300781 18.46875 2.71875 C 18.425781 4.070312 17.5 5.421875 15.6875 6.765625 C 14.53125 7.421875 12.957031 7.757812 10.96875 7.78125 C 9.519531 7.46875 8.171875 6.546875 6.921875 5.015625 C 6.222656 3.566406 5.875 1.847656 5.875 -0.140625 Z M 22.5625 -50.140625 C 22.457031 -49.566406 22.539062 -48.894531 22.8125 -48.125 C 23.25 -48.019531 23.722656 -47.910156 24.234375 -47.796875 C 24.773438 -47.992188 25.285156 -48.753906 25.765625 -50.078125 C 28.234375 -56.597656 31.648438 -63.375 36.015625 -70.40625 C 36.523438 -71.226562 36.6875 -71.914062 36.5 -72.46875 C 36.46875 -72.894531 36.050781 -73.179688 35.25 -73.328125 C 34.882812 -73.523438 34.375 -73.269531 33.71875 -72.5625 C 29.488281 -65.6875 25.769531 -58.210938 22.5625 -50.140625 Z M 77.96875 -5.03125 C 78.445312 -4.5 79.007812 -4.1875 79.65625 -4.09375 C 80.289062 -4.144531 80.6875 -4.460938 80.84375 -5.046875 C 81.019531 -5.628906 80.707031 -6.5 79.90625 -7.65625 C 78.332031 -10.519531 76.609375 -13.867188 74.734375 -17.703125 C 74.671875 -18.546875 74.234375 -19.078125 73.421875 -19.296875 C 73.128906 -19.421875 72.613281 -19.273438 71.875 -18.859375 C 71.75 -18.703125 71.65625 -18.128906 71.59375 -17.140625 C 73.3125 -13.148438 75.4375 -9.113281 77.96875 -5.03125 Z M 67.78125 -24.84375 C 68.03125 -24.289062 68.492188 -23.796875 69.171875 -23.359375 C 69.816406 -23.410156 70.265625 -23.625 70.515625 -24 C 70.835938 -24.4375 70.800781 -25.359375 70.40625 -26.765625 C 70.394531 -26.972656 70.265625 -27.25 70.015625 -27.59375 C 69.929688 -28.582031 69.632812 -29.234375 69.125 -29.546875 C 68.957031 -29.742188 68.414062 -29.734375 67.5 -29.515625 C 67.21875 -29.492188 66.984375 -28.984375 66.796875 -27.984375 C 66.992188 -27.210938 67.320312 -26.164062 67.78125 -24.84375 Z M 67.78125 -24.84375 "/></g></g></g><g fill="#bc1823" fill-opacity="1"><g transform="translate(736.76497, 1008.020787)"><g><path d="M 32.171875 -65.15625 C 38.296875 -49.132812 44.453125 -34.992188 50.640625 -22.734375 C 56.859375 -11.179688 60.679688 -4.695312 62.109375 -3.28125 C 63.472656 -2.4375 64.710938 -1.835938 65.828125 -1.484375 C 67.109375 -1.421875 68.90625 -3.066406 71.21875 -6.421875 C 73.457031 -9.722656 75.773438 -18.8125 78.171875 -33.6875 C 80.566406 -48.40625 81.640625 -58.753906 81.390625 -64.734375 C 81.503906 -67.078125 82.351562 -69.09375 83.9375 -70.78125 C 85.726562 -72.382812 87.875 -72.628906 90.375 -71.515625 C 92.882812 -70.597656 94.164062 -68.6875 94.21875 -65.78125 C 94.414062 -57.101562 93.382812 -46.070312 91.125 -32.6875 C 89.25 -19.84375 86.972656 -10.222656 84.296875 -3.828125 C 82.359375 1.972656 79.539062 6.269531 75.84375 9.0625 C 72.8125 11.3125 69.304688 12.476562 65.328125 12.5625 C 61.578125 12.363281 57.992188 10.863281 54.578125 8.0625 C 51.890625 5.21875 47.421875 -1.769531 41.171875 -12.90625 C 37.554688 -20.050781 33.207031 -29.332031 28.125 -40.75 C 28.03125 -38.914062 27.695312 -36.625 27.125 -33.875 C 25.257812 -19.976562 22.796875 -7.457031 19.734375 3.6875 C 19.492188 5.519531 18.460938 7.03125 16.640625 8.21875 C 15.617188 8.738281 13.96875 8.96875 11.6875 8.90625 C 10.132812 8.625 8.691406 7.734375 7.359375 6.234375 C 6.640625 4.929688 6.40625 3.144531 6.65625 0.875 C 9.570312 -10.0625 12.222656 -22.710938 14.609375 -37.078125 C 16.859375 -51.460938 18.203125 -60.910156 18.640625 -65.421875 C 18.898438 -67.554688 19.722656 -69.15625 21.109375 -70.21875 C 22.453125 -71.21875 24.039062 -71.632812 25.875 -71.46875 C 27.789062 -71.363281 29.28125 -70.535156 30.34375 -68.984375 C 30.550781 -68.972656 30.804688 -68.5 31.109375 -67.5625 C 31.523438 -67.175781 31.878906 -66.375 32.171875 -65.15625 Z M 91.921875 -64.609375 C 91.972656 -65.597656 91.648438 -66.1875 90.953125 -66.375 C 90.597656 -66.539062 90.101562 -66.460938 89.46875 -66.140625 C 89.3125 -66.003906 89.113281 -65.082031 88.875 -63.375 C 89.0625 -58.757812 88.644531 -53.390625 87.625 -47.265625 C 87.59375 -46.691406 87.695312 -46.003906 87.9375 -45.203125 C 88.300781 -45.117188 88.789062 -44.988281 89.40625 -44.8125 C 90.050781 -44.925781 90.46875 -45.367188 90.65625 -46.140625 C 91.601562 -52.265625 92.023438 -58.421875 91.921875 -64.609375 Z M 53.546875 3.53125 C 54.148438 4.050781 54.734375 4.363281 55.296875 4.46875 C 55.878906 4.289062 56.25 3.957031 56.40625 3.46875 C 56.4375 2.90625 56.09375 2.066406 55.375 0.953125 C 53.726562 -1.691406 51.9375 -4.804688 50 -8.390625 C 49.90625 -9.234375 49.429688 -9.71875 48.578125 -9.84375 C 48.304688 -10 47.800781 -9.847656 47.0625 -9.390625 C 46.914062 -9.253906 46.851562 -8.6875 46.875 -7.6875 C 48.75 -4.050781 50.972656 -0.3125 53.546875 3.53125 Z M 18.609375 -27.71875 C 18.785156 -28.6875 18.644531 -29.363281 18.1875 -29.75 C 18.0625 -30.113281 17.53125 -30.210938 16.59375 -30.046875 C 16.445312 -30.054688 16.09375 -29.429688 15.53125 -28.171875 C 14.15625 -20.859375 12.453125 -12.742188 10.421875 -3.828125 C 10.410156 -3.472656 10.601562 -2.96875 11 -2.3125 C 11.414062 -2.21875 11.90625 -2.117188 12.46875 -2.015625 C 12.90625 -2.210938 13.25 -2.660156 13.5 -3.359375 C 15.207031 -11.578125 16.910156 -19.695312 18.609375 -27.71875 Z M 18.609375 -27.71875 "/></g></g></g><g fill="#bc1823" fill-opacity="1"><g transform="translate(829.139561, 1012.738705)"><g><path d="M 9.375 -13.859375 C 10.582031 -21.210938 17.140625 -37.789062 29.046875 -63.59375 C 29.046875 -64.457031 28.972656 -65.445312 28.828125 -66.5625 C 29.171875 -68.4375 30.082031 -69.851562 31.5625 -70.8125 C 32.976562 -71.851562 34.765625 -72.175781 36.921875 -71.78125 C 41.347656 -71.113281 49.0625 -69.691406 60.0625 -67.515625 C 71.082031 -65.484375 80.71875 -63.128906 88.96875 -60.453125 C 91.195312 -60.046875 92.691406 -58.972656 93.453125 -57.234375 C 94.328125 -56.078125 94.492188 -54.421875 93.953125 -52.265625 C 93.660156 -50.671875 92.679688 -49.269531 91.015625 -48.0625 C 89.929688 -47.320312 88.132812 -47.179688 85.625 -47.640625 C 77.507812 -50.210938 67.789062 -52.660156 56.46875 -54.984375 C 49.851562 -56.335938 44.453125 -57.398438 40.265625 -58.171875 C 36.566406 -49.472656 33.191406 -41.726562 30.140625 -34.9375 C 34.179688 -34.539062 40.878906 -33.703125 50.234375 -32.421875 C 60.179688 -31.160156 68.925781 -29.648438 76.46875 -27.890625 C 78.695312 -27.484375 80.25 -26.515625 81.125 -24.984375 C 81.988281 -23.816406 82.257812 -22.175781 81.9375 -20.0625 C 81.644531 -18.457031 80.769531 -17 79.3125 -15.6875 C 78.363281 -14.851562 76.546875 -14.578125 73.859375 -14.859375 C 66.535156 -16.648438 57.738281 -18.269531 47.46875 -19.71875 C 37.882812 -21.34375 31.351562 -22.113281 27.875 -22.03125 C 27.175781 -22.164062 26.3125 -22.394531 25.28125 -22.71875 C 23.820312 -17.863281 22.769531 -14.269531 22.125 -11.9375 C 21.519531 -8.664062 21.941406 -5.703125 23.390625 -3.046875 C 24.890625 -0.960938 27.847656 0.625 32.265625 1.71875 C 40.628906 3.257812 55.015625 3.894531 75.421875 3.625 C 77.554688 3.789062 79.304688 4.289062 80.671875 5.125 C 82.078125 5.75 82.707031 7.203125 82.5625 9.484375 C 82.613281 11.148438 81.921875 12.753906 80.484375 14.296875 C 79.515625 15.273438 77.664062 15.941406 74.9375 16.296875 C 56.175781 16.660156 41.609375 15.992188 31.234375 14.296875 C 22.710938 12.734375 16.535156 9.46875 12.703125 4.5 C 9.523438 -0.195312 8.414062 -6.316406 9.375 -13.859375 Z M 77.078125 -60.578125 C 76.378906 -60.703125 75.707031 -60.578125 75.0625 -60.203125 C 75.03125 -60.054688 74.9375 -59.5625 74.78125 -58.71875 C 74.976562 -58.5625 75.554688 -58.171875 76.515625 -57.546875 C 80.285156 -56.847656 84.265625 -55.9375 88.453125 -54.8125 C 89.085938 -54.695312 89.597656 -54.890625 89.984375 -55.390625 C 90.253906 -55.765625 90.378906 -56.25 90.359375 -56.84375 C 90.441406 -57.269531 89.992188 -57.601562 89.015625 -57.84375 C 85.359375 -58.738281 81.378906 -59.648438 77.078125 -60.578125 Z M 46.28125 13.734375 C 47.144531 13.742188 47.738281 13.453125 48.0625 12.859375 C 48.3125 12.265625 48.265625 11.75 47.921875 11.3125 C 47.847656 10.945312 46.953125 10.710938 45.234375 10.609375 C 41.046875 10.191406 36.15625 9.507812 30.5625 8.5625 C 29.875 8.425781 29.179688 8.472656 28.484375 8.703125 C 28.398438 8.765625 28.238281 9.242188 28 10.140625 C 28.082031 10.503906 28.472656 10.941406 29.171875 11.453125 C 34.828125 12.492188 40.53125 13.253906 46.28125 13.734375 Z M 19.671875 7.203125 C 20.492188 7.421875 21.125 7.5 21.5625 7.4375 C 22.0625 7.09375 22.328125 6.671875 22.359375 6.171875 C 22.453125 5.617188 21.851562 4.929688 20.5625 4.109375 C 20.5625 4.109375 20.335938 3.960938 19.890625 3.671875 C 19.503906 3.015625 18.878906 2.679688 18.015625 2.671875 C 17.867188 2.648438 17.457031 2.9375 16.78125 3.53125 C 16.71875 3.875 16.820312 4.46875 17.09375 5.3125 C 17.875 5.75 18.734375 6.378906 19.671875 7.203125 Z M 69.078125 -26.5625 C 68.378906 -26.6875 67.703125 -26.554688 67.046875 -26.171875 C 67.023438 -26.035156 66.9375 -25.546875 66.78125 -24.703125 C 66.945312 -24.390625 67.523438 -23.992188 68.515625 -23.515625 C 70.816406 -23.085938 73.289062 -22.597656 75.9375 -22.046875 C 76.5625 -21.929688 77.066406 -22.128906 77.453125 -22.640625 C 77.734375 -23.015625 77.851562 -23.492188 77.8125 -24.078125 C 77.894531 -24.492188 77.460938 -24.863281 76.515625 -25.1875 C 74.285156 -25.601562 71.804688 -26.0625 69.078125 -26.5625 Z M 69.078125 -26.5625 "/></g></g></g><g fill="#bc1823" fill-opacity="1"><g transform="translate(912.333558, 1027.747955)"><g><path d="M 48.625 -60.421875 C 55.40625 -61.609375 62.890625 -60.90625 71.078125 -58.3125 C 78.585938 -55.925781 84.140625 -51.859375 87.734375 -46.109375 C 91.421875 -40.773438 93.144531 -33.382812 92.90625 -23.9375 C 93.03125 -21.507812 92.046875 -19.363281 89.953125 -17.5 C 88.253906 -16.101562 86.035156 -16.132812 83.296875 -17.59375 C 81.191406 -19.164062 80.019531 -22.289062 79.78125 -26.96875 C 80.226562 -33.75 78.925781 -38.550781 75.875 -41.375 C 73.414062 -43.957031 70.363281 -45.851562 66.71875 -47.0625 C 61.570312 -48.695312 56.472656 -49.160156 51.421875 -48.453125 C 46.941406 -47.953125 42.832031 -46.503906 39.09375 -44.109375 C 36.082031 -42.097656 33.90625 -39.441406 32.5625 -36.140625 C 31.550781 -32.960938 31.535156 -30.210938 32.515625 -27.890625 C 33.503906 -26.085938 35.34375 -24.609375 38.03125 -23.453125 C 40.800781 -22.578125 44.738281 -21.628906 49.84375 -20.609375 C 54.851562 -19.460938 59.628906 -18.207031 64.171875 -16.84375 C 67.753906 -15.707031 70.859375 -13.976562 73.484375 -11.65625 C 76.222656 -9.75 78.179688 -6.78125 79.359375 -2.75 C 80.785156 0.519531 80.625 4.925781 78.875 10.46875 C 77.601562 14.46875 75.023438 17.785156 71.140625 20.421875 C 67.835938 22.578125 63.613281 23.914062 58.46875 24.4375 C 54.125 24.550781 47.210938 23.445312 37.734375 21.125 C 34.628906 20.132812 32.820312 18.210938 32.3125 15.359375 C 32.332031 12.703125 33.242188 10.648438 35.046875 9.203125 C 36.972656 8.035156 39.707031 7.972656 43.25 9.015625 C 48.726562 10.753906 52.9375 11.566406 55.875 11.453125 C 58.570312 11.421875 60.957031 10.945312 63.03125 10.03125 C 64.832031 9.269531 66.070312 7.953125 66.75 6.078125 C 67.457031 3.847656 67.441406 2.019531 66.703125 0.59375 C 66.117188 -0.632812 65.15625 -1.722656 63.8125 -2.671875 C 63 -3.367188 61.644531 -4.019531 59.75 -4.625 C 56.976562 -5.5 52.679688 -6.601562 46.859375 -7.9375 C 41.671875 -9.425781 36.832031 -10.734375 32.34375 -11.859375 C 27.132812 -13.515625 23.160156 -16.929688 20.421875 -22.109375 C 18.253906 -27.035156 18.140625 -33.03125 20.078125 -40.09375 C 21.816406 -45.570312 25.304688 -50.007812 30.546875 -53.40625 C 35.816406 -56.875 41.84375 -59.210938 48.625 -60.421875 Z M 25.546875 -45.375 C 25.203125 -44.75 24.988281 -44.078125 24.90625 -43.359375 C 25.257812 -43.097656 25.65625 -42.820312 26.09375 -42.53125 C 26.664062 -42.5 27.363281 -42.945312 28.1875 -43.875 C 31.5 -47.957031 36.113281 -50.890625 42.03125 -52.671875 C 42.78125 -52.878906 43.238281 -53.253906 43.40625 -53.796875 C 43.53125 -54.191406 43.421875 -54.675781 43.078125 -55.25 C 43.003906 -55.5 42.382812 -55.660156 41.21875 -55.734375 C 35.132812 -53.929688 29.910156 -50.476562 25.546875 -45.375 Z M 74.21875 -7.296875 C 73.875 -8.078125 73.25 -8.460938 72.34375 -8.453125 C 72.082031 -8.535156 71.703125 -8.242188 71.203125 -7.578125 C 71.109375 -7.304688 71.328125 -6.492188 71.859375 -5.140625 C 73.617188 -3.171875 74.484375 -0.367188 74.453125 3.265625 C 74.503906 3.804688 74.703125 4.359375 75.046875 4.921875 C 75.585938 5.085938 76.101562 5.097656 76.59375 4.953125 C 77.101562 4.742188 77.421875 4.210938 77.546875 3.359375 C 77.753906 -0.585938 76.644531 -4.140625 74.21875 -7.296875 Z M 51.921875 21.828125 C 52.796875 21.878906 53.429688 21.628906 53.828125 21.078125 C 54.015625 20.460938 54 19.9375 53.78125 19.5 C 53.71875 19.25 52.835938 18.972656 51.140625 18.671875 C 48.453125 18.179688 45.085938 17.519531 41.046875 16.6875 C 40.367188 16.46875 39.65625 16.503906 38.90625 16.796875 C 38.863281 16.929688 38.675781 17.394531 38.34375 18.1875 C 38.4375 18.582031 38.8125 19.035156 39.46875 19.546875 C 43.570312 20.703125 47.722656 21.460938 51.921875 21.828125 Z M 63.5 -13.9375 C 62.820312 -14.15625 62.144531 -14.035156 61.46875 -13.578125 C 61.363281 -13.222656 61.3125 -12.710938 61.3125 -12.046875 C 61.613281 -11.816406 62.410156 -11.382812 63.703125 -10.75 C 63.828125 -10.707031 63.972656 -10.691406 64.140625 -10.703125 C 65.078125 -10.410156 65.78125 -10.300781 66.25 -10.375 C 66.695312 -10.601562 66.953125 -11.046875 67.015625 -11.703125 C 67.210938 -12.304688 66.925781 -12.8125 66.15625 -13.21875 C 65.613281 -13.382812 64.726562 -13.625 63.5 -13.9375 Z M 63.5 -13.9375 "/></g></g></g><g fill="#bc1823" fill-opacity="1"><g transform="translate(993.015922, 1052.983774)"><g><path d="M 12.5 -11.125 C 15.488281 -17.9375 25.929688 -32.382812 43.828125 -54.46875 C 44.046875 -55.300781 44.21875 -56.273438 44.34375 -57.390625 C 45.144531 -59.117188 46.378906 -60.269531 48.046875 -60.84375 C 49.691406 -61.5 51.507812 -61.367188 53.5 -60.453125 C 57.625 -58.703125 64.75 -55.421875 74.875 -50.609375 C 85.050781 -45.921875 93.800781 -41.257812 101.125 -36.625 C 103.1875 -35.675781 104.378906 -34.269531 104.703125 -32.40625 C 105.253906 -31.0625 105 -29.414062 103.9375 -27.46875 C 103.257812 -26 101.96875 -24.882812 100.0625 -24.125 C 98.832031 -23.664062 97.054688 -23.972656 94.734375 -25.046875 C 87.503906 -29.546875 78.6875 -34.3125 68.28125 -39.34375 C 62.21875 -42.289062 57.25 -44.65625 53.375 -46.4375 C 47.65625 -38.925781 42.472656 -32.25 37.828125 -26.40625 C 41.648438 -25.039062 47.9375 -22.578125 56.6875 -19.015625 C 66.007812 -15.347656 74.109375 -11.734375 80.984375 -8.171875 C 83.046875 -7.222656 84.3125 -5.898438 84.78125 -4.203125 C 85.332031 -2.835938 85.191406 -1.179688 84.359375 0.765625 C 83.671875 2.253906 82.460938 3.453125 80.734375 4.359375 C 79.609375 4.941406 77.78125 4.757812 75.25 3.8125 C 68.59375 0.28125 60.46875 -3.457031 50.875 -7.40625 C 41.988281 -11.332031 35.847656 -13.6875 32.453125 -14.46875 C 31.804688 -14.757812 31.023438 -15.203125 30.109375 -15.796875 C 27.492188 -11.441406 25.585938 -8.210938 24.390625 -6.109375 C 22.992188 -3.078125 22.671875 -0.101562 23.421875 2.8125 C 24.367188 5.207031 26.84375 7.476562 30.84375 9.625 C 38.570312 13.1875 52.359375 17.347656 72.203125 22.109375 C 74.222656 22.804688 75.789062 23.726562 76.90625 24.875 C 78.113281 25.820312 78.367188 27.382812 77.671875 29.5625 C 77.304688 31.195312 76.238281 32.578125 74.46875 33.703125 C 73.289062 34.410156 71.328125 34.609375 68.578125 34.296875 C 50.316406 30.023438 36.375 25.785156 26.75 21.578125 C 18.882812 17.953125 13.703125 13.257812 11.203125 7.5 C 9.273438 2.164062 9.707031 -4.039062 12.5 -11.125 Z M 89.65625 -39.6875 C 89.007812 -39.976562 88.320312 -40.023438 87.59375 -39.828125 C 87.53125 -39.691406 87.320312 -39.238281 86.96875 -38.46875 C 87.113281 -38.25 87.578125 -37.722656 88.359375 -36.890625 C 91.835938 -35.285156 95.46875 -33.421875 99.25 -31.296875 C 99.832031 -31.023438 100.375 -31.085938 100.875 -31.484375 C 101.238281 -31.773438 101.476562 -32.210938 101.59375 -32.796875 C 101.769531 -33.179688 101.421875 -33.613281 100.546875 -34.09375 C 97.210938 -35.863281 93.582031 -37.726562 89.65625 -39.6875 Z M 41.453125 24.71875 C 42.296875 24.9375 42.953125 24.804688 43.421875 24.328125 C 43.804688 23.804688 43.875 23.296875 43.625 22.796875 C 43.664062 22.421875 42.863281 21.96875 41.21875 21.4375 C 37.269531 20.007812 32.703125 18.140625 27.515625 15.828125 C 26.867188 15.535156 26.179688 15.414062 25.453125 15.46875 C 25.359375 15.5 25.085938 15.914062 24.640625 16.71875 C 24.617188 17.101562 24.882812 17.628906 25.4375 18.296875 C 30.664062 20.703125 36.003906 22.84375 41.453125 24.71875 Z M 17.296875 11.828125 C 18.023438 12.253906 18.617188 12.488281 19.078125 12.53125 C 19.640625 12.320312 19.988281 11.972656 20.125 11.484375 C 20.363281 10.972656 19.960938 10.160156 18.921875 9.046875 C 18.921875 9.046875 18.734375 8.847656 18.359375 8.453125 C 18.160156 7.734375 17.640625 7.257812 16.796875 7.03125 C 16.660156 6.96875 16.191406 7.144531 15.390625 7.5625 C 15.234375 7.875 15.191406 8.476562 15.265625 9.375 C 15.898438 9.988281 16.578125 10.804688 17.296875 11.828125 Z M 73.5 -8.6875 C 72.851562 -8.988281 72.164062 -9.035156 71.4375 -8.828125 C 71.382812 -8.703125 71.179688 -8.25 70.828125 -7.46875 C 70.898438 -7.125 71.363281 -6.59375 72.21875 -5.875 C 74.34375 -4.894531 76.613281 -3.816406 79.03125 -2.640625 C 79.613281 -2.367188 80.148438 -2.429688 80.640625 -2.828125 C 81.015625 -3.117188 81.25 -3.550781 81.34375 -4.125 C 81.53125 -4.519531 81.203125 -4.988281 80.359375 -5.53125 C 78.296875 -6.476562 76.007812 -7.53125 73.5 -8.6875 Z M 73.5 -8.6875 "/></g></g></g><g clip-path="url(#dc0db0bf65)"><path fill="#bc1823" d="M 753.984375 640.191406 L 1004.003906 640.191406 C 1004.003906 603.839844 996.339844 569.285156 982.566406 538.027344 L 825.925781 521.941406 L 974.78125 521.941406 C 932.273438 441.476562 847.769531 386.617188 750.433594 386.617188 C 610.394531 386.617188 496.867188 500.148438 496.867188 640.191406 C 496.867188 661.351562 499.472656 681.898438 504.359375 701.550781 L 665.082031 701.550781 L 508.914062 717.585938 C 541.632812 819.773438 637.386719 893.757812 750.433594 893.757812 C 881.851562 893.757812 989.917969 793.78125 1002.734375 665.734375 L 753.984375 640.191406 " fill-opacity="1" fill-rule="nonzero"/></g><path fill="#11100e" d="M 750.433594 594.507812 C 645.46875 594.507812 552.726562 569.292969 496.859375 530.746094 C 516.707031 589.609375 622.679688 634.542969 750.433594 634.542969 C 878.191406 634.542969 984.164062 589.609375 1004.011719 530.746094 C 948.144531 569.292969 855.40625 594.507812 750.433594 594.507812 " fill-opacity="1" fill-rule="nonzero"/><path fill="#11100e" d="M 958.113281 648.925781 L 542.757812 648.925781 L 521.976562 620.167969 L 978.894531 620.167969 L 958.113281 648.925781 " fill-opacity="1" fill-rule="nonzero"/><path fill="#11100e" d="M 898.980469 695.292969 L 601.886719 695.292969 L 588.035156 674.851562 L 912.835938 674.851562 L 898.980469 695.292969 " fill-opacity="1" fill-rule="nonzero"/><path fill="#11100e" d="M 624.027344 881.988281 L 652.292969 881.988281 L 652.292969 634.542969 L 624.027344 634.542969 L 624.027344 881.988281 " fill-opacity="1" fill-rule="nonzero"/><path fill="#11100e" d="M 848.578125 881.988281 L 876.84375 881.988281 L 876.84375 634.542969 L 848.578125 634.542969 L 848.578125 881.988281 " fill-opacity="1" fill-rule="nonzero"/><path fill="#11100e" d="M 765.257812 688.804688 L 735.609375 688.804688 L 735.609375 625.902344 L 765.257812 625.902344 L 765.257812 688.804688 " fill-opacity="1" fill-rule="nonzero"/><g clip-path="url(#f4f83b375d)"><path fill="#11100e" d="M 750.433594 895.828125 C 874.464844 895.828125 988.5625 915.097656 1078.917969 947.382812 C 1008.085938 896.203125 887.40625 862.5 750.433594 862.5 C 613.464844 862.5 492.785156 896.203125 421.953125 947.382812 C 512.3125 915.097656 626.402344 895.828125 750.433594 895.828125 " fill-opacity="1" fill-rule="nonzero"/></g><path fill="#11100e" d="M 661.261719 891.085938 L 615.054688 891.085938 L 615.054688 825.375 L 661.261719 825.375 L 661.261719 891.085938 " fill-opacity="1" fill-rule="nonzero"/><path fill="#11100e" d="M 885.8125 884.160156 L 839.609375 884.160156 L 839.609375 825.375 L 885.8125 825.375 L 885.8125 884.160156 " fill-opacity="1" fill-rule="nonzero"/><g transform="matrix(1, 0, 0, 1, 581, 1035)"><g clip-path="url(#26cf088336)"><g fill="#11100e" fill-opacity="1"><g transform="translate(3.179466, 60.84012)"><g><path d="M 23.734375 -44.796875 C 29.367188 -44.796875 33.734375 -43.460938 36.828125 -40.796875 C 39.921875 -38.128906 41.46875 -34.363281 41.46875 -29.5 C 41.46875 -24.414062 39.921875 -20.476562 36.828125 -17.6875 C 33.734375 -14.894531 29.367188 -13.5 23.734375 -13.5 L 13.4375 -13.5 L 13.4375 0 L 5.890625 0 L 5.890625 -44.796875 Z M 23.421875 -20.28125 C 26.921875 -20.28125 29.597656 -21.035156 31.453125 -22.546875 C 33.304688 -24.066406 34.234375 -26.320312 34.234375 -29.3125 C 34.234375 -32.207031 33.304688 -34.378906 31.453125 -35.828125 C 29.597656 -37.273438 26.921875 -38 23.421875 -38 L 13.4375 -38 L 13.4375 -20.28125 Z M 23.421875 -20.28125 "/></g></g></g><g fill="#11100e" fill-opacity="1"><g transform="translate(46.241108, 60.84012)"><g><path d="M 25.90625 -45.296875 C 30.300781 -45.296875 34.3125 -44.289062 37.9375 -42.28125 C 41.5625 -40.28125 44.421875 -37.53125 46.515625 -34.03125 C 48.609375 -30.539062 49.65625 -26.679688 49.65625 -22.453125 C 49.65625 -18.191406 48.609375 -14.3125 46.515625 -10.8125 C 44.421875 -7.3125 41.5625 -4.535156 37.9375 -2.484375 C 34.3125 -0.441406 30.300781 0.578125 25.90625 0.578125 C 21.519531 0.578125 17.515625 -0.441406 13.890625 -2.484375 C 10.265625 -4.535156 7.40625 -7.3125 5.3125 -10.8125 C 3.21875 -14.3125 2.171875 -18.191406 2.171875 -22.453125 C 2.171875 -26.679688 3.21875 -30.539062 5.3125 -34.03125 C 7.40625 -37.53125 10.265625 -40.28125 13.890625 -42.28125 C 17.515625 -44.289062 21.519531 -45.296875 25.90625 -45.296875 Z M 25.984375 -38.453125 C 23.078125 -38.453125 20.382812 -37.738281 17.90625 -36.3125 C 15.4375 -34.882812 13.476562 -32.953125 12.03125 -30.515625 C 10.582031 -28.085938 9.859375 -25.398438 9.859375 -22.453125 C 9.859375 -19.515625 10.59375 -16.804688 12.0625 -14.328125 C 13.53125 -11.859375 15.488281 -9.894531 17.9375 -8.4375 C 20.394531 -6.988281 23.078125 -6.265625 25.984375 -6.265625 C 28.878906 -6.265625 31.539062 -6.988281 33.96875 -8.4375 C 36.40625 -9.894531 38.335938 -11.859375 39.765625 -14.328125 C 41.191406 -16.804688 41.90625 -19.515625 41.90625 -22.453125 C 41.90625 -25.398438 41.191406 -28.085938 39.765625 -30.515625 C 38.335938 -32.953125 36.40625 -34.882812 33.96875 -36.3125 C 31.539062 -37.738281 28.878906 -38.453125 25.984375 -38.453125 Z M 25.984375 -38.453125 "/></g></g></g><g fill="#11100e" fill-opacity="1"><g transform="translate(98.068647, 60.84012)"><g><path d="M 24.25 -44.796875 C 28.6875 -44.796875 32.664062 -43.832031 36.1875 -41.90625 C 39.707031 -39.988281 42.457031 -37.320312 44.4375 -33.90625 C 46.414062 -30.5 47.40625 -26.660156 47.40625 -22.390625 C 47.40625 -18.128906 46.398438 -14.300781 44.390625 -10.90625 C 42.390625 -7.519531 39.617188 -4.851562 36.078125 -2.90625 C 32.546875 -0.96875 28.539062 0 24.0625 0 L 5.890625 0 L 5.890625 -44.796875 Z M 24.4375 -6.78125 C 27.300781 -6.78125 29.90625 -7.441406 32.25 -8.765625 C 34.59375 -10.085938 36.4375 -11.929688 37.78125 -14.296875 C 39.125 -16.671875 39.796875 -19.347656 39.796875 -22.328125 C 39.796875 -25.316406 39.101562 -28.003906 37.71875 -30.390625 C 36.332031 -32.773438 34.441406 -34.640625 32.046875 -35.984375 C 29.660156 -37.328125 27.019531 -38 24.125 -38 L 13.4375 -38 L 13.4375 -6.78125 Z M 24.4375 -6.78125 "/></g></g></g><g fill="#11100e" fill-opacity="1"><g transform="translate(147.656717, 60.84012)"><g><path d="M 38.328125 -32.765625 C 36.703125 -34.554688 34.78125 -35.960938 32.5625 -36.984375 C 30.34375 -38.003906 28.101562 -38.515625 25.84375 -38.515625 C 22.90625 -38.515625 20.207031 -37.8125 17.75 -36.40625 C 15.300781 -35 13.375 -33.066406 11.96875 -30.609375 C 10.5625 -28.160156 9.859375 -25.460938 9.859375 -22.515625 C 9.859375 -19.617188 10.570312 -16.941406 12 -14.484375 C 13.425781 -12.035156 15.351562 -10.097656 17.78125 -8.671875 C 20.21875 -7.242188 22.90625 -6.53125 25.84375 -6.53125 C 28.0625 -6.53125 30.269531 -7.007812 32.46875 -7.96875 C 34.664062 -8.925781 36.617188 -10.238281 38.328125 -11.90625 L 42.8125 -6.90625 C 40.5 -4.601562 37.804688 -2.78125 34.734375 -1.4375 C 31.671875 -0.09375 28.582031 0.578125 25.46875 0.578125 C 21.15625 0.578125 17.21875 -0.441406 13.65625 -2.484375 C 10.09375 -4.535156 7.285156 -7.3125 5.234375 -10.8125 C 3.191406 -14.3125 2.171875 -18.191406 2.171875 -22.453125 C 2.171875 -26.679688 3.203125 -30.539062 5.265625 -34.03125 C 7.335938 -37.53125 10.175781 -40.28125 13.78125 -42.28125 C 17.394531 -44.289062 21.375 -45.296875 25.71875 -45.296875 C 28.875 -45.296875 31.957031 -44.664062 34.96875 -43.40625 C 37.976562 -42.15625 40.566406 -40.441406 42.734375 -38.265625 Z M 38.328125 -32.765625 "/></g></g></g><g fill="#11100e" fill-opacity="1"><g transform="translate(192.254018, 60.84012)"><g><path d="M 47.15625 0 L 39.09375 0 L 34.8125 -10.109375 L 12.21875 -10.109375 L 7.9375 0 L 0.0625 0 L 19.828125 -44.796875 L 27.578125 -44.796875 Z M 23.484375 -36.734375 L 15.03125 -16.828125 L 31.921875 -16.828125 Z M 23.484375 -36.734375 "/></g></g></g><g fill="#11100e" fill-opacity="1"><g transform="translate(239.474671, 60.84012)"><g><path d="M 33.140625 -34.109375 C 30.835938 -35.515625 28.535156 -36.554688 26.234375 -37.234375 C 23.929688 -37.921875 21.863281 -38.265625 20.03125 -38.265625 C 17.8125 -38.265625 16.039062 -37.847656 14.71875 -37.015625 C 13.394531 -36.179688 12.734375 -35 12.734375 -33.46875 C 12.734375 -32.101562 13.160156 -30.972656 14.015625 -30.078125 C 14.867188 -29.179688 15.929688 -28.472656 17.203125 -27.953125 C 18.484375 -27.441406 20.28125 -26.828125 22.59375 -26.109375 C 25.613281 -25.171875 28.070312 -24.265625 29.96875 -23.390625 C 31.875 -22.515625 33.5 -21.210938 34.84375 -19.484375 C 36.1875 -17.753906 36.859375 -15.484375 36.859375 -12.671875 C 36.859375 -10.023438 36.140625 -7.707031 34.703125 -5.71875 C 33.273438 -3.738281 31.28125 -2.210938 28.71875 -1.140625 C 26.164062 -0.078125 23.25 0.453125 19.96875 0.453125 C 16.507812 0.453125 13.179688 -0.1875 9.984375 -1.46875 C 6.785156 -2.75 4.007812 -4.5 1.65625 -6.71875 L 4.921875 -13.25 C 7.179688 -11.15625 9.664062 -9.519531 12.375 -8.34375 C 15.082031 -7.175781 17.65625 -6.59375 20.09375 -6.59375 C 22.695312 -6.59375 24.742188 -7.09375 26.234375 -8.09375 C 27.722656 -9.09375 28.46875 -10.46875 28.46875 -12.21875 C 28.46875 -13.625 28.03125 -14.773438 27.15625 -15.671875 C 26.28125 -16.566406 25.179688 -17.28125 23.859375 -17.8125 C 22.535156 -18.351562 20.742188 -18.960938 18.484375 -19.640625 C 15.421875 -20.535156 12.957031 -21.410156 11.09375 -22.265625 C 9.238281 -23.117188 7.640625 -24.398438 6.296875 -26.109375 C 4.953125 -27.816406 4.28125 -30.054688 4.28125 -32.828125 C 4.28125 -35.335938 4.960938 -37.539062 6.328125 -39.4375 C 7.691406 -41.34375 9.609375 -42.816406 12.078125 -43.859375 C 14.554688 -44.898438 17.398438 -45.421875 20.609375 -45.421875 C 23.421875 -45.421875 26.191406 -44.992188 28.921875 -44.140625 C 31.648438 -43.296875 34.101562 -42.171875 36.28125 -40.765625 Z M 33.140625 -34.109375 "/></g></g></g><g fill="#11100e" fill-opacity="1"><g transform="translate(279.273099, 60.84012)"><g><path d="M 0.578125 -38 L 0.578125 -44.796875 L 36.46875 -44.796875 L 36.46875 -38 L 22.265625 -38 L 22.265625 0 L 14.71875 0 L 14.71875 -38 Z M 0.578125 -38 "/></g></g></g></g></g></svg>